<svg width="22" height="22" viewBox="0 0 22 22" fill="none" xmlns="http://www.w3.org/2000/svg">
<path fill-rule="evenodd" clip-rule="evenodd" d="M11 2.0792L8.7872 4.3687C8.55167 4.61239 8.22729 4.75 7.88839 4.75H4.75V7.88839C4.75 8.2273 4.61239 8.55167 4.3687 8.7872L2.0792 11L4.3687 13.2128C4.61239 13.4483 4.75 13.7727 4.75 14.1116V17.25H7.88839C8.22729 17.25 8.55167 17.3876 8.7872 17.6313L11 19.9208L13.2128 17.6313C13.4483 17.3876 13.7727 17.25 14.1116 17.25H17.25V14.1116C17.25 13.7727 17.3876 13.4483 17.6313 13.2128L19.9208 11L17.6313 8.78721C17.3876 8.55168 17.25 8.2273 17.25 7.8884V4.75H14.1116C13.7727 4.75 13.4483 4.61239 13.2128 4.3687L11 2.0792ZM10.1012 0.850768C10.5926 0.342367 11.4074 0.342367 11.8988 0.850768L14.2177 3.25H17.5C18.1904 3.25 18.75 3.80965 18.75 4.5V7.78234L21.1492 10.1012C21.6576 10.5926 21.6576 11.4074 21.1492 11.8988L18.75 14.2177V17.5C18.75 18.1904 18.1904 18.75 17.5 18.75H14.2177L11.8988 21.1492C11.4074 21.6576 10.5926 21.6576 10.1012 21.1492L7.78233 18.75H4.5C3.80964 18.75 3.25 18.1904 3.25 17.5V14.2177L0.850765 11.8988C0.342366 11.4074 0.342365 10.5926 0.850765 10.1012L3.25 7.78233V4.5C3.25 3.80964 3.80964 3.25 4.5 3.25H7.78233L10.1012 0.850768Z" fill="white"/>
<path fill-rule="evenodd" clip-rule="evenodd" d="M6.25 11C6.25 8.37665 8.37665 6.25 11 6.25C13.6234 6.25 15.75 8.37665 15.75 11C15.75 13.6234 13.6234 15.75 11 15.75C8.37665 15.75 6.25 13.6234 6.25 11ZM11 7.75C9.20507 7.75 7.75 9.20508 7.75 11C7.75 12.7949 9.20507 14.25 11 14.25C12.7949 14.25 14.25 12.7949 14.25 11C14.25 9.20508 12.7949 7.75 11 7.75Z" fill="white"/>
</svg>
