<svg width="19" height="19" viewBox="0 0 19 19" fill="none" xmlns="http://www.w3.org/2000/svg">
<path d="M5.58246 0.25C2.70308 0.25 0.25 2.84841 0.25 6.2231C0.25 8.55115 1.15325 10.5111 2.35036 12.1348C3.54335 13.7528 5.0825 15.1109 6.47393 16.2476L8.87469 18.2089C9.13761 18.4237 9.48239 18.4237 9.74531 18.2089L12.1461 16.2476C13.5375 15.1109 15.0767 13.7528 16.2696 12.1348C17.4667 10.5111 18.37 8.55115 18.37 6.2231C18.37 2.84841 15.9169 0.25 13.0375 0.25C11.5533 0.25 10.2472 1.08994 9.31 2.17676C8.37277 1.08994 7.06672 0.25 5.58246 0.25Z" fill="white"/>
</svg>
