<svg width="19" height="19" viewBox="0 0 19 19" fill="none" xmlns="http://www.w3.org/2000/svg">
<path fill-rule="evenodd" clip-rule="evenodd" d="M0.25 6.2231C0.25 2.84841 2.70308 0.25 5.58246 0.25C7.06672 0.25 8.37277 1.08994 9.31 2.17676C10.2472 1.08994 11.5533 0.25 13.0375 0.25C15.9169 0.25 18.37 2.84841 18.37 6.2231C18.37 8.5348 17.5532 10.5677 16.4215 12.2861C15.2918 14.0015 13.8141 15.4574 12.3992 16.6404C11.8587 17.0923 11.312 17.5091 10.8117 17.8167C10.3418 18.1055 9.80156 18.37 9.31 18.37C8.81844 18.37 8.27819 18.1055 7.80835 17.8167C7.30798 17.5091 6.76125 17.0923 6.22083 16.6404C4.80594 15.4574 3.3282 14.0015 2.19849 12.2861C1.06683 10.5677 0.25 8.5348 0.25 6.2231ZM5.58246 2.12448C3.42954 2.12448 1.80314 4.03533 1.80314 6.2231C1.80314 7.97698 2.42004 9.60992 3.41436 11.1198C4.41064 12.6326 5.75115 13.9674 7.10531 15.0996C7.61772 15.528 8.10035 15.8926 8.51319 16.1463C8.95655 16.4188 9.21336 16.4955 9.31 16.4955C9.40664 16.4955 9.66345 16.4188 10.1068 16.1463C10.5197 15.8926 11.0023 15.528 11.5147 15.0996C12.8688 13.9674 14.2094 12.6326 15.2056 11.1198C16.2 9.60992 16.8169 7.97698 16.8169 6.2231C16.8169 4.03533 15.1905 2.12448 13.0375 2.12448C11.8011 2.12448 10.6465 3.01601 9.92563 4.14758C9.77863 4.37831 9.55116 4.51353 9.31 4.51353C9.06884 4.51353 8.84137 4.37831 8.69437 4.14758C7.97347 3.01601 6.81892 2.12448 5.58246 2.12448Z" fill="white"/>
</svg>
