<svg width="106" height="100" viewBox="0 0 106 100" fill="none" xmlns="http://www.w3.org/2000/svg">
<path d="M36.3041 62.401C35.5737 62.401 34.8731 62.427 34.1841 62.464V49.401H24.6441V53.509C24.6441 60.383 22.5453 67.061 18.9232 73.027C17.841 74.809 17.064 76.644 16.5064 78.381C15.0627 82.873 18.6392 87.401 23.6148 87.401H57.5041L36.3041 62.401Z" fill="#DE5147"/>
<path d="M53.264 64.401H32.064V87.401H53.264V64.401Z" fill="#B73B3B"/>
<path d="M81.8839 53.518V49.401H72.3439V62.464C71.6528 62.427 70.95 62.401 70.2176 62.401L49.0176 87.401H82.9068C87.8825 87.401 91.4589 82.873 90.0163 78.382C89.4587 76.646 88.6817 74.812 87.6005 73.03C83.9806 67.066 81.8839 60.39 81.8839 53.518Z" fill="#DE5147"/>
<path d="M75.524 33.401H31.004L24.644 87.401H81.884L75.524 33.401Z" fill="#B73B3B"/>
<path d="M64.924 72.401H41.604V87.401H64.924V72.401Z" fill="#2B59A1"/>
<g filter="url(#filter0_d_96_69)">
<path d="M63.8873 12C68.687 12 74.3559 14.185 79.2065 22.056C82.4554 27.329 81.884 33.383 81.884 39.482V49.401V53.518C81.884 60.276 83.7729 66.926 87.4225 72.741C88.597 74.613 89.428 76.551 90.0163 78.381C91.459 82.873 87.8826 87.401 82.9069 87.401H81.884H24.644H23.6148C18.6349 87.401 15.0627 82.867 16.5085 78.371C17.064 76.645 17.8356 74.822 18.9084 73.051C22.5251 67.076 24.643 60.401 24.643 53.521V49.402V40.608C24.643 33.622 24.573 26.714 28.7568 20.949C33.8162 13.977 39.0833 12 43.4336 12.001C47.3969 12.001 50.5981 13.643 52.1828 14.645C52.858 15.072 53.7325 15.066 54.4258 14.667C56.1663 13.666 59.695 12 63.8873 12ZM63.8873 9C59.3823 9 55.5589 10.603 53.3467 11.789C51.2691 10.58 47.734 9 43.4346 9H43.4325C38.9349 9 32.2835 10.779 26.1333 19.254C21.4609 25.691 21.463 33.101 21.464 40.268V40.607V49.401V53.509C21.464 59.591 19.6313 65.824 16.164 71.536C15.0616 73.351 14.1532 75.361 13.4632 77.511C12.4816 80.566 13.0763 83.79 15.0945 86.355C17.1159 88.926 20.2217 90.401 23.6148 90.401H24.644H82.9069C86.3 90.401 89.4058 88.926 91.4283 86.355C93.4454 83.79 94.0401 80.566 93.0596 77.511C92.3695 75.362 91.4611 73.353 90.3598 71.538C86.8946 65.829 85.064 59.597 85.064 53.517V49.401V39.482C85.064 38.698 85.0736 37.915 85.0831 37.134C85.1509 31.586 85.2209 25.848 81.955 20.548C76.0742 11.003 68.8831 9 63.8873 9Z" fill="#2785BD"/>
</g>
<path d="M81.585 49.194C79.9271 47.196 76.9888 48.048 75.6733 49.823C76.4323 46.065 76.0793 43.46 76.0793 40.439C76.0793 27.19 66.0358 19.005 53.7122 18.433V18.401C53.5617 18.404 53.4133 18.413 53.2628 18.417C53.1123 18.412 52.9639 18.403 52.8134 18.401V18.433C40.4909 19.006 30.4463 27.19 30.4463 40.439C30.4463 43.46 30.0944 46.065 30.8523 49.823C29.5368 48.049 26.5985 47.196 24.9407 49.194C27.3257 46.32 30.2174 64.4 26.5328 60.942C29.0217 63.278 30.335 60.921 31.8572 60.438C31.8678 60.435 31.819 65.974 34.1818 69.4C36.9007 73.342 46.8042 82.079 52.8134 82.4H53.7122C59.7214 82.078 69.6228 72.342 72.3417 68.4C74.7045 64.974 74.6578 60.434 74.6684 60.438C76.1895 60.92 77.5029 63.278 79.9928 60.942C76.3104 64.402 79.1968 46.317 81.585 49.194Z" fill="#2785BD"/>
<path d="M49.0241 54.401C49.0241 54.401 46.9041 42.401 34.1841 46.401C34.1841 46.401 36.3041 54.401 49.0241 54.401Z" fill="#40396E"/>
<path d="M57.5039 54.401C57.5039 54.401 59.6239 42.401 72.3439 46.401C72.3439 46.401 70.2239 54.401 57.5039 54.401Z" fill="#40396E"/>
<path d="M57.5039 54.401C57.5039 54.401 59.9917 47.359 68.6996 48.533C67.1414 51.473 64.1533 53.505 60.704 53.97L57.5039 54.401Z" fill="#FFE385"/>
<path d="M49.0239 54.401C49.0239 54.401 46.5361 47.359 37.8271 48.533C39.3853 51.473 42.3735 53.505 45.8227 53.97L49.0239 54.401Z" fill="#FFE385"/>
<path d="M79.2054 22.056C70.4837 7.902 59.1142 12.135 54.9145 14.395C53.8958 14.943 52.6429 14.899 51.6444 14.318C47.839 12.105 37.9513 8.277 28.7558 20.949C24.572 26.714 24.6419 33.622 24.6419 40.608V87.401H32.0619V45.401C32.0619 45.401 29.9419 16.401 53.2619 38.401C76.5819 16.401 74.4619 45.401 74.4619 45.401V87.401H81.8819V39.482C81.884 33.383 82.4543 27.329 79.2054 22.056Z" fill="#DE5147"/>
<path d="M58.0743 50.744C59.0898 50.494 61.6221 48.097 63.5577 46.208C65.3194 44.488 67.6885 43.345 70.224 43.401C70.2505 43.402 70.224 43.401 70.224 43.401C70.224 43.401 68.0775 41.295 64.6113 42.149C62.8782 42.576 61.0423 44.133 58.0287 46.622C57.3174 47.178 56.7546 47.862 56.3168 48.54C55.5822 49.678 56.7069 51.081 58.0743 50.744Z" fill="#40396E"/>
<path d="M48.4547 50.744C49.8221 51.081 50.9468 49.678 50.2111 48.539C49.7744 47.861 49.2116 47.177 48.4992 46.621C45.4857 44.132 43.6497 42.575 41.9166 42.148C38.4515 41.295 36.305 43.401 36.305 43.401C36.305 43.401 36.2785 43.402 36.305 43.401C38.8395 43.345 41.2086 44.488 42.9713 46.208C44.9069 48.098 47.4392 50.494 48.4547 50.744Z" fill="#40396E"/>
<path d="M46.7958 51.135C45.5864 49.957 43.7982 48.849 41.2679 48.516C40.8217 49.032 40.5439 49.683 40.5439 50.401C40.5439 51.104 40.8111 51.742 41.2404 52.254C41.9283 52.708 42.6714 53.085 43.4589 53.376C43.5469 53.383 43.6328 53.401 43.724 53.401C45.2101 53.401 46.4471 52.435 46.7958 51.135Z" fill="#F9B84F"/>
<path d="M59.731 51.135C60.0797 52.435 61.3178 53.401 62.8039 53.401C62.8951 53.401 62.9799 53.383 63.0689 53.376C63.8565 53.085 64.5995 52.708 65.2875 52.254C65.7168 51.743 65.9839 51.104 65.9839 50.401C65.9839 49.683 65.7051 49.033 65.2599 48.516C62.7286 48.849 60.9404 49.957 59.731 51.135Z" fill="#F9B84F"/>
<path d="M53.7102 29.401H52.8177C48.6222 29.401 44.7839 31.873 44.7839 35.991C44.7839 38.874 46.1238 39.698 46.1238 39.698C46.2573 39.821 46.3909 39.944 46.5711 40.069V40.299C46.5711 41.545 47.5728 42.633 49.007 42.944L49.0261 42.948L49.2476 43.82C49.4819 44.742 50.4496 45.401 51.5701 45.401H54.9207C56.0115 45.401 56.9612 44.776 57.2252 43.885L57.5029 42.948C58.9455 42.643 59.9578 41.548 59.9578 40.296V40.069C60.1359 39.946 60.2695 39.823 60.4052 39.698C60.4052 39.698 61.745 38.463 61.745 35.991C61.7418 31.873 57.9025 29.401 53.7102 29.401ZM48.7112 38.299C49.0674 37.228 50.1401 36.693 51.3443 37.105C52.3258 37.435 52.6841 38.629 52.3704 39.411C51.9697 40.646 50.7634 41.141 49.3345 40.771C48.8003 40.605 48.1304 39.864 48.7112 38.299ZM53.9243 43.528C53.5501 43.528 53.2417 42.746 53.1738 42.416C53.1738 42.828 52.9417 43.528 52.4997 43.528C52.2294 43.528 52.0248 43.323 52.0248 42.951C52.0248 42.169 52.7329 40.645 53.1738 40.52C53.6159 40.725 54.3992 42.167 54.3992 42.951C54.4003 43.323 54.1967 43.528 53.9243 43.528ZM57.1457 40.769C55.7613 41.181 54.5571 40.646 54.1098 39.411C53.8427 38.545 54.1989 37.351 55.1804 37.105C56.2955 36.775 57.4573 37.228 57.7689 38.299C58.3498 39.864 57.7689 40.564 57.1457 40.769Z" fill="#F2F2F2"/>
<defs>
<filter id="filter0_d_96_69" x="9" y="7" width="86.522" height="87.401" filterUnits="userSpaceOnUse" color-interpolation-filters="sRGB">
<feFlood flood-opacity="0" result="BackgroundImageFix"/>
<feColorMatrix in="SourceAlpha" type="matrix" values="0 0 0 0 0 0 0 0 0 0 0 0 0 0 0 0 0 0 127 0" result="hardAlpha"/>
<feOffset dx="-1" dy="1"/>
<feGaussianBlur stdDeviation="1.5"/>
<feComposite in2="hardAlpha" operator="out"/>
<feColorMatrix type="matrix" values="0 0 0 0 0 0 0 0 0 0 0 0 0 0 0 0 0 0 0.25 0"/>
<feBlend mode="normal" in2="BackgroundImageFix" result="effect1_dropShadow_96_69"/>
<feBlend mode="normal" in="SourceGraphic" in2="effect1_dropShadow_96_69" result="shape"/>
</filter>
</defs>
</svg>
